<?xml version="1.0" standalone="no"?>
<!DOCTYPE svg PUBLIC "-//W3C//DTD SVG 20010904//EN"
 "http://www.w3.org/TR/2001/REC-SVG-20010904/DTD/svg10.dtd">
<svg version="1.0" xmlns="http://www.w3.org/2000/svg"
 width="1024.000000pt" height="1024.000000pt" viewBox="0 0 1024.000000 1024.000000"
 preserveAspectRatio="xMidYMid meet">
<metadata>
Created by potrace 1.14, written by Peter Selinger 2001-2017
</metadata>
<g transform="translate(0.000000,1024.000000) scale(0.100000,-0.100000)"
fill="#000000" stroke="none">
<path d="M4080 8405 c-1 -16 -1 -326 -1 -364 l1 -33 183 7 c100 3 209 8 242
10 33 2 132 6 220 10 87 3 162 7 165 7 3 0 9 0 13 -1 4 0 -47 -82 -115 -182
-68 -99 -127 -188 -133 -197 -5 -9 -19 -30 -31 -47 -20 -29 -154 -228 -469
-695 -87 -129 -204 -302 -260 -385 -56 -82 -167 -247 -247 -365 -172 -255
-499 -741 -725 -1075 -89 -132 -236 -350 -327 -485 -91 -135 -277 -410 -413
-612 -136 -203 -362 -538 -502 -745 -324 -482 -430 -625 -550 -744 -189 -186
-328 -260 -521 -275 -41 -4 -77 -9 -80 -11 -3 -2 -5 -72 -5 -154 l0 -149 867
0 868 0 0 205 0 205 -87 -5 c-49 -3 -124 -7 -168 -9 -44 -3 -134 -8 -200 -11
-66 -4 -148 -8 -182 -10 -35 -2 -63 -1 -63 2 0 4 419 630 732 1093 57 85 160
238 228 340 68 102 125 187 127 189 4 5 36 6 518 15 454 9 942 19 1496 32 188
4 237 2 241 -8 7 -21 2 -995 -6 -1073 -12 -118 -17 -158 -28 -200 -6 -22 -12
-51 -14 -65 -8 -47 -73 -165 -114 -208 -71 -73 -186 -120 -350 -142 -47 -7
-94 -13 -105 -15 -20 -4 -20 -11 -20 -167 l0 -163 2393 -3 2392 -2 1 22 c2 28
4 91 13 383 4 127 9 280 11 340 4 104 8 243 20 645 3 96 8 230 10 298 l5 122
-160 0 -160 0 -1 -92 c-3 -299 -63 -587 -161 -783 -117 -232 -293 -401 -507
-485 -68 -26 -215 -69 -261 -76 -19 -3 -41 -7 -48 -9 -58 -20 -271 -22 -997
-11 -264 5 -574 9 -690 11 -115 2 -263 4 -328 4 -65 1 -116 5 -113 9 5 8 14
103 22 228 2 44 5 643 5 1332 l1 1252 22 1 c11 1 50 2 86 4 1019 50 1254 38
1430 -76 100 -64 162 -160 200 -304 23 -90 28 -128 36 -255 3 -58 7 -116 8
-130 l1 -25 150 0 150 0 3 973 2 972 -206 0 -206 0 7 -62 c3 -35 8 -83 10
-108 3 -25 7 -81 10 -125 3 -44 8 -100 10 -125 2 -25 7 -81 10 -125 4 -44 10
-117 14 -163 4 -46 6 -84 4 -86 -2 -2 -978 2 -1508 7 l-230 2 0 885 c1 487 4
935 8 995 11 145 32 289 52 350 56 167 175 274 354 320 66 17 89 21 181 30
138 15 1128 27 1190 15 25 -4 65 -11 90 -15 62 -8 163 -33 240 -57 326 -105
545 -393 606 -798 2 -19 7 -46 9 -60 7 -43 17 -158 20 -243 2 -45 4 -90 4 -99
1 -16 15 -18 151 -18 113 0 150 3 151 13 1 22 -3 240 -6 312 -1 39 -5 187 -9
330 -4 143 -9 310 -11 370 -2 61 -7 218 -10 350 -4 132 -9 242 -12 245 -10 10
-4643 5 -4643 -5z m825 -2587 l0 -1493 -997 -1 -996 0 37 55 c118 180 941
1418 948 1426 4 6 33 48 63 95 30 47 59 90 63 95 5 6 194 289 420 630 391 588
456 685 460 685 1 0 2 -672 2 -1492z"/>
</g>
</svg>
